<svg xmlns="http://www.w3.org/2000/svg" data-name="Layer 1" width="666.741" height="729.254"><path d="M15.195 204.733c8.344-5.707 19.083 6.871 13.241 14.703-5.905 7.916-18.815 5.672-23.261-2.411-5.672-10.313-.024-22.581 9.118-28.568 10.384-6.802 23.11-7.184 35.1-6.547 12.111.644 23.93 1.498 35.994-.238a120.739 120.739 0 0029.693-8.327 126.144 126.144 0 0049.875-37.784c6.154-7.808 11.906-16.583 15.428-25.93 2.714-7.2 4-16.668.155-23.715a12.073 12.073 0 00-18.354-3.686c-6.407 5.25-8.138 14.997-3.239 21.79 5.257 7.288 15.177 9.786 23.718 8.459 11.87-1.844 21.482-10.224 30.57-17.439l67.299-53.43c11.097-8.811 22.081-17.793 33.322-26.42 9.14-7.016 20.295-13.819 32.2-10.071 4.799 1.51 9.635 5.088 10.835 10.227a13.161 13.161 0 01-4.72 12.75 8.095 8.095 0 01-11.84-1.485c-2.51-3.499-2.716-8.488-1.27-12.442 3.86-10.566 18.031-11.672 27.487-10.813a77.226 77.226 0 0131.584 10.396c19.985 11.607 34.764 30.49 43.433 51.716 9.605 23.52 12.564 49.545 12.172 74.793-.08 5.15-.437 10.846-3.335 15.286-2.84 4.349-7.792 5.665-12.234 2.757-1.447-.947-3.307-2.792-2.93-4.738.474-2.444 5.343-2.462 7.293-2.369 5.338.256 10.384 2.947 14.207 6.574 9.087 8.62 9.793 21.811 8.608 33.54-1.3 12.876-5.011 25.682-3.537 38.716 2.414 21.355 19.936 33.22 37.146 43.038 8.813 5.027 17.82 9.834 25.745 16.23a106.04 106.04 0 0120.988 22.842 115.376 115.376 0 0119.702 57.19 105.533 105.533 0 01-2.399 30.506c-2.264 9.779-5.83 22.106-15.226 27.36a12.607 12.607 0 01-14.367-1.29c-3.807-3.055-5.667-8.479-1.735-12.296 3.259-3.163 8.473-2.496 12.405-1.21 4.733 1.548 8.417 4.437 11.945 7.85 6.726 6.505 14.6 14.49 24.831 12.413 1.891-.384 1.09-3.276-.797-2.893-12.353 2.508-19.8-11.848-28.91-17.375-6.594-4.002-17.859-6.977-23.012.827-5.562 8.422 3.38 17.508 11.69 18.593 10.805 1.41 18.296-9.155 21.923-17.875 8.414-20.224 8.675-43.938 3.529-64.997a115.929 115.929 0 00-32.07-56.169c-7.976-7.602-17.12-13.43-26.66-18.855-9.629-5.476-19.665-10.73-27.904-18.246a41.84 41.84 0 01-14.155-32.262c.088-14.012 4.593-27.61 4.312-41.648-.233-11.64-4.189-23.006-14.314-29.56a23.145 23.145 0 00-14.191-3.96c-2.049.168-4.926.513-6.613 1.795-1.359 1.033-1.616 3.45-1.342 5.013.65 3.712 4.161 6.29 7.572 7.323a10.842 10.842 0 0011.708-3.455c3.28-3.787 4.418-8.838 4.882-13.7.629-6.59.281-13.357-.01-19.957-1.18-26.82-6.48-54.281-20.418-77.574-11.847-19.8-30.274-36.402-52.367-43.747-10.411-3.46-22.761-5.535-33.504-2.387-9.242 2.708-16.325 10.315-14.799 20.39 1.292 8.528 10.13 14.427 17.916 9.044a15.523 15.523 0 002.487-23.396c-7.528-7.884-19.803-7.827-29.196-3.82-5.657 2.412-10.665 6.027-15.496 9.783-6.157 4.786-12.227 9.688-18.335 14.537l-73.581 58.418c-5.808 4.61-11.522 9.39-17.523 13.748-5.6 4.067-11.779 7.834-18.673 9.14-9.708 1.839-25.075-2.983-23.898-15.297.457-4.781 3.624-10.063 8.466-11.434 4.745-1.344 9.226 1.709 10.99 6.03 3.89 9.528-.678 20.427-5.221 28.79-11.248 20.71-28.991 37.576-49.78 48.55a121.035 121.035 0 01-33.11 11.75c-12.972 2.55-25.702 2.05-38.818 1.255-12.714-.771-26.065-.693-37.398 5.933-9.292 5.433-15.49 15.285-14.001 26.264 1.293 9.534 8.94 16.821 18.801 16.016 8.278-.676 16.594-7.744 13.657-16.723-2.432-7.434-11.819-13.297-18.999-8.386-1.584 1.083-.085 3.684 1.515 2.59z" fill="#3f3d56"/><path d="M650.958 421.33h-72.685a4.288 4.288 0 00-4.283 4.282v45.254a4.288 4.288 0 004.283 4.283h72.685a4.288 4.288 0 004.283-4.283v-45.254a4.288 4.288 0 00-4.283-4.283z" fill="#f2f2f2" style="isolation:isolate"/><path d="M650.958 421.33h-72.685a4.288 4.288 0 00-4.283 4.282v45.254a4.288 4.288 0 004.283 4.283h72.685a4.288 4.288 0 004.283-4.283v-45.254a4.288 4.288 0 00-4.283-4.283zm1.406 32.505a17.608 17.608 0 01-17.312 17.54c-7.375.095 4.08.133-4.814.133-20.34 0-41.55-.195-49.463-.32a3.99 3.99 0 01-3.908-3.975v-41.597a1.41 1.41 0 011.405-1.41h72.683a1.41 1.41 0 011.409 1.406z" fill="#e6e6e6"/><path d="M642.01 395.27h-55.378a2.38 2.38 0 00-2.237 1.578l-8.553 23.996a2.375 2.375 0 002.234 3.173l74.272.131h.003a2.375 2.375 0 002.183-3.31l-.13.055.13-.055-10.34-24.128a2.372 2.372 0 00-2.183-1.44z" fill="#e6e6e6"/><path d="M654.726 421.359a2.382 2.382 0 01-.192.936l-10.34 18.572a2.382 2.382 0 01-2.183 1.438h-55.378a2.382 2.382 0 01-2.24-1.577l-8.55-18.44a2.374 2.374 0 011.44-3.034 2.337 2.337 0 01.792-.139l9.073-.017 3.703-.006 48.726-.086 3.705-.006 9.066-.017h.002a2.376 2.376 0 012.376 2.376zm-71.004 33.915c1.098 0 16.178.922 16.178 2.02s-15.08 1.957-16.178 1.957a1.988 1.988 0 010-3.977z" fill="#e6e6e6"/><path d="M638.562 380.673h-46.694a4.726 4.726 0 00-4.72 4.72v56.912h54.863a2.346 2.346 0 001.271-.37v-56.542a4.726 4.726 0 00-4.72-4.72z" fill="#f2f2f2"/><path d="M620.74 384.5h-25.59a4.303 4.303 0 00-4.3 4.297v53.508h48.727v-38.968a18.86 18.86 0 00-18.838-18.837z" fill="#fff"/><path d="M631.276 437.553h-32.124a1.047 1.047 0 100 2.094h32.124a1.047 1.047 0 100-2.094zm0-4.141h-32.124a1.048 1.048 0 000 2.096h32.124a1.048 1.048 0 100-2.096zm-18.199-4.139h-13.925a1.047 1.047 0 100 2.094h13.925a1.047 1.047 0 100-2.094zm18.199-8.671h-32.124a1.048 1.048 0 000 2.096h32.124a1.048 1.048 0 100-2.096zm0-4.139h-32.124a1.047 1.047 0 100 2.094h32.124a1.047 1.047 0 100-2.094zm-18.199-4.141h-13.925a1.048 1.048 0 000 2.097h13.925a1.048 1.048 0 100-2.097zm18.199-8.67h-32.124a1.048 1.048 0 000 2.096h32.124a1.048 1.048 0 100-2.096zm0-4.139h-32.124a1.048 1.048 0 000 2.096h32.124a1.048 1.048 0 100-2.096zm-18.199-4.141h-13.925a1.048 1.048 0 000 2.096h13.925a1.048 1.048 0 100-2.096z" fill="#e4e4e4"/><circle cx="267.124" cy="168.13" r="30.997" fill="#ffb6b6"/><path d="M302.508 150.381c-3.26-5.044-9.38-8.406-15.311-7.461a20.909 20.909 0 00-35.034-12.196 6.502 6.502 0 00-6.358-.636 13.406 13.406 0 00-5.165 4.146 30.088 30.088 0 00-4.21 30.61c-.726-2.636 1.916-5.115 4.584-5.707 2.668-.591 5.468-.032 8.174-.417 3.468-.493 6.586-2.505 10.06-2.958 2.919-.38 5.855.368 8.702 1.118 2.847.75 5.775 1.515 8.698 1.168 2.924-.347 6.69 10.733 6.64 18.537-.01 1.479.295 3.378 1.74 3.692 1.78.386 2.811-2.07 4.505-2.74a3.134 3.134 0 013.845 2.044 5.11 5.11 0 01-.976 4.576 15.1 15.1 0 01-3.66 3.176l.697.58c1.16 1.533 3.568 1.6 5.24.651a11.311 11.311 0 003.764-4.284c3.095-5.148 5.81-10.632 6.901-16.539s.424-12.315-2.836-17.36z" fill="#2f2e41"/><path fill="#ffb6b6" d="M303.485 710.95l-16.74-.002-7.964-64.572 24.708.001-.004 64.573z"/><path d="M304.075 728.413l-51.48-.001v-.651a20.039 20.039 0 0120.037-20.038h.002l9.403-7.134 17.545 7.135h4.494z" fill="#2f2e41"/><path fill="#ffb6b6" d="M333.673 681.391l-13.133 10.38-46.294-45.715 19.384-15.323 40.043 50.658z"/><path d="M344.967 694.725L304.58 726.65l-.404-.511a20.039 20.039 0 013.292-28.145l.001-.001 2.953-11.428 18.188-5.284 3.525-2.787zM216.918 408.274l-1.022 18.843 4.971 6.005-.57 18.847 4.823 12.336 3.392 39.246 47.506 163.756 42.809-13.731-46.747-152.65 56.244-1.405 1.903-86.074-9.967-19.268-103.342 14.095z" fill="#2f2e41"/><path fill="#2f2e41" d="M322.915 486.545l5.409 12.976-20.915 182.72-29.345 2.143-12.672-204.275 57.523 6.436z"/><path fill="#00b289" d="M294.155 217.278l-9.636-13.338-31.114 1.247-.597 10.27-20.669 195.224 20.298-.455 25.197 5.883 48.463-16.962-31.942-181.869z"/><path d="M240.12 414.291h-47.717l12.45-87.873L209.9 290.8s-3.573-25.457-5.303-38.757a7.529 7.529 0 01.709-4.14 13.656 13.656 0 012.193-3.309c5.804-6.692 18.858-12.496 27.045-15.673 4.216-1.625 7.146-2.561 7.146-2.561l11.116-10.9c15.957 19.937-12.685 198.831-12.685 198.831zm47.991-204.271l15.138 8.676s44.832 7.363 49.192 24.2l-16.503 49.815v104.693l-40.006 16.043s-34.51-169.138-7.82-203.427z" fill="#3f3d56"/><path opacity=".4" d="M272.788 475.879l-7.396 85.669 12.593 99.704"/><path d="M94.22 316.285a10.387 10.387 0 0115.43 3.949l36.676-4.148-8.693 17.098-33.496 1.317a10.443 10.443 0 01-9.917-18.215z" fill="#ffb6b6"/><path fill="#3f3d56" d="M248.158 241.42l10.496 6.27-58.783 82.811-71.749 6.096-2.857-20.485 52.864-15.86 26.13-50.648 43.899-8.184z"/><path d="M462.095 309.285a10.387 10.387 0 00-15.43 3.949l-36.677-4.148 8.694 17.098 33.496 1.317a10.443 10.443 0 009.917-18.216z" fill="#ffb6b6"/><path fill="#3f3d56" d="M308.156 234.42l-10.495 6.27 58.783 82.811 71.749 6.096 2.856-20.485-52.863-15.86-26.13-50.648-43.9-8.184z"/><path d="M165.241 214.934v-1.094h-18.347v-25.532h-1.092v25.532h-21.027v-19.717q-.551.434-1.089.892v18.825h-13.888c-.154.362-.303.726-.443 1.094h14.331v21.454h-17.794c.017.367.042.73.073 1.094h17.721v17.116H110.41c.163.367.334.73.514 1.088h12.762v14.388h1.09v-14.388h21.026v14.388h1.092v-14.388h18.347v-1.088h-18.347a17.112 17.112 0 0117.115-17.116h1.232v-1.094h-18.347v-21.454zm-19.439 39.664h-21.027v-17.116h21.027zm0-18.21h-21.027v-.43a21.026 21.026 0 0121.027-21.024z" fill="#e6e6e6"/><path d="M324.647 63.456a.585.585 0 01-.764-.317l-1.519-3.67a.584.584 0 011.08-.448l1.52 3.671a.585.585 0 01-.317.764z" fill="#3f3d56"/><path d="M355.29 36.26l-4.533-10.96a6.864 6.864 0 00-8.967-3.718l-23.216 9.608a6.864 6.864 0 00-3.718 8.967l24.878 60.117a6.864 6.864 0 008.967 3.717l23.216-9.607a6.864 6.864 0 003.718-8.967L358.52 44.058a.433.433 0 00.234-.565l-2.897-7a.433.433 0 00-.565-.235z" fill="#3f3d56"/><path d="M349.423 25.902l24.843 60.03a5.123 5.123 0 01-2.724 6.673.278.278 0 01-.05.025l-23.33 9.654a5.129 5.129 0 01-6.698-2.777l-24.842-60.03a5.125 5.125 0 012.778-6.696l2.83-1.171a2.436 2.436 0 003.37 2.239l13.3-5.505a2.37 2.37 0 00.775-.52 2.43 2.43 0 00.02-3.442l3.034-1.255a5.125 5.125 0 016.694 2.775z" fill="#00b289"/><path d="M322.055 57.193a.585.585 0 01-.763-.316l-1.52-3.672a.584.584 0 111.08-.446l1.52 3.67a.585.585 0 01-.317.764zm-3.057-7.082a.585.585 0 01-.763-.316l-1.52-3.671a.584.584 0 111.08-.447l1.52 3.671a.585.585 0 01-.317.763z" fill="#3f3d56"/><path d="M327.55 30.132a.585.585 0 01.316-.764l3.672-1.519a.584.584 0 01.446 1.08l-3.67 1.52a.585.585 0 01-.764-.317z" fill="#fff"/><circle cx="333.813" cy="27.54" r=".584" fill="#fff"/><path d="M460.532 287.38c-.074 0-.147-.002-.222-.005a5.39 5.39 0 01-4.335-2.465 60.897 60.897 0 00-12.82-13.887c-3.008-2.405-6.152-4.64-9.192-6.804-7.844-5.577-15.23-10.83-19.33-18.087-8.94-15.826 1.587-37.87 16.628-47.755 16.87-11.087 39.059-12.826 60.525-13.054q3.346-.036 6.697-.035a638.494 638.494 0 01115.31 10.543c12.649 2.334 25.889 5.193 36.528 12.13 10.576 6.897 17.005 17.757 16.378 27.67-.916 14.47-16.255 25.282-30.223 28.109-13.314 2.692-27.144.873-41.786-1.054-3.233-.425-6.575-.865-9.88-1.247-35.92-4.152-103.398 8.645-106.253 9.192l-2.832.542-10.99 14.142a5.274 5.274 0 01-4.203 2.064z" fill="#00b289"/><path d="M620.488 216.79H468.666a3.303 3.303 0 010-6.607h151.822a3.303 3.303 0 010 6.606zm0 20.275H468.666a3.303 3.303 0 01-.007-6.606h151.829a3.303 3.303 0 010 6.606zM486.359 257.34h-17.693a3.303 3.303 0 010-6.606h17.693a3.303 3.303 0 010 6.607z" fill="#fff"/><circle cx="462.407" cy="294.352" r="16.057" fill="#fff"/><path d="M462.407 310.605a16.253 16.253 0 1116.253-16.253 16.271 16.271 0 01-16.253 16.253z" fill="#3f3d56"/><path d="M461.205 300.77c-.035 0-.069-.002-.103-.003a2.1 2.1 0 01-1.557-.81l-2.683-3.449a2.1 2.1 0 01.368-2.948l.097-.075a2.1 2.1 0 012.949.368 1.532 1.532 0 002.32.113l5.449-5.752a2.104 2.104 0 012.97-.08l.09.085a2.1 2.1 0 01.08 2.97l-8.456 8.924a2.098 2.098 0 01-1.524.656z" fill="#fff"/><path d="M162.592 86.793l-9.823-59.076a4.577 4.577 0 013.76-5.26l44.615-7.418a4.577 4.577 0 015.26 3.76l9.823 59.075a4.577 4.577 0 01-3.76 5.26l-44.615 7.419a4.577 4.577 0 01-5.26-3.76z" fill="#3f3d56"/><path d="M163.047 68.38l-6.315-37.979a4.286 4.286 0 013.521-4.926l38.343-6.376a4.287 4.287 0 014.926 3.522l8.742 52.569a4.287 4.287 0 01-3.522 4.926l-23.752 3.95a19.094 19.094 0 01-21.943-15.685z" fill="#fff"/><path d="M164.702 39.966a4.189 4.189 0 013.441-4.814l26.599-4.423a4.184 4.184 0 111.372 8.255l-26.598 4.423a4.189 4.189 0 01-4.814-3.441zm2.135 12.841a4.189 4.189 0 013.441-4.814l26.599-4.423a4.184 4.184 0 011.373 8.255l-26.599 4.423a4.189 4.189 0 01-4.814-3.441zm2.136 12.84a4.189 4.189 0 013.44-4.813l26.6-4.423a4.184 4.184 0 011.372 8.254l-26.599 4.423a4.189 4.189 0 01-4.813-3.44z" fill="#00b289"/><path d="M395.697 687.598l.707-15.9a51.353 51.353 0 0123.953-6.064c-11.504 9.406-10.067 27.536-17.866 40.184a30.889 30.889 0 01-22.651 14.274l-9.627 5.895a51.76 51.76 0 0110.91-41.943 49.997 49.997 0 019.188-8.538c2.306 6.08 5.386 12.092 5.386 12.092z" fill="#f2f2f2"/><path d="M523.34 727.7a1.549 1.549 0 01-1.554 1.554h-418.05a1.553 1.553 0 110-3.106h418.05a1.549 1.549 0 011.553 1.553z" fill="#ccc"/><path d="M104.743 308.284c-7.414-.148-47.24-1.29-53.77-1.01-.37-1.293-12.75 14.573-13.051 14.671a1.808 1.808 0 00.605 2.908c.727.442 64.931-.746 65.71-.59a1.786 1.786 0 001.593-1.04l.43-.96c.044-1.645.582-10.048.099-11.485a1.778 1.778 0 00-1.616-2.494z" fill="#3f3d56"/><path d="M106.26 322.261c-.378.906-.86 2.043-2.024 2.001l-65.031.73a1.794 1.794 0 01-1.566-2.633z" opacity=".17" style="isolation:isolate"/><path d="M51.277 307.08c-.7-1.211-18.087-87.239-19.538-87.958L19.87 204.6l-1.06-.798c-1.476-.81-5.015-.262-4.697 1.99 2.79 13.37 20.726 89.52 21.12 101.391l2.158 15.125a1.863 1.863 0 002.3 1.53 3.583 3.583 0 002.877-2.08c.162-.533 9.522-14.37 8.71-14.68z" fill="#3f3d56"/><path d="M19.866 204.601L42.57 321.762c-.76 1.922-4.312 3.268-5.14.748-.014-.004-23.291-116.644-23.315-116.714-.248-2.807 4.39-2.896 5.751-1.195z" opacity=".17" style="isolation:isolate"/><path fill="#00b289" d="M20.55 209.392l11.531 16.072 12.942 61.465-6.017 5.248-18.456-82.785z"/><path d="M97.3 316.572l3.19.13a12.539 12.539 0 01.46-2.76c.48-2.28.91-4.99-1.08-4.98-1.35-.13-1.81 1.58-2.05 3.44a26.32 26.32 0 01-.52 4.17zm-18.3-4.29l2.15.08 1.04.04c-.02-1.14.51-3.49-.78-4.07a1.6 1.6 0 00-.65-.13c-1.21-.07-1.57.85-1.68 1.91-.07.64-.04 1.32-.06 1.85 0 .11-.01.22-.02.32zm-6.37-.26l2.16.09 1.03.04c-.02-1.31.67-4.17-1.43-4.21-1.94-.11-1.69 2.36-1.74 3.76 0 .11-.01.22-.02.32zm-6.37-.25l2.15.08 1.04.04c-.02-1.3.67-4.16-1.43-4.2-1.94-.12-1.69 2.35-1.74 3.76 0 .11-.01.22-.02.32zm-6.37-.26l2.16.09 1.03.04c-.02-1.31.67-4.16-1.43-4.21-1.94-.11-1.69 2.36-1.74 3.76 0 .11-.01.22-.02.32zm-6.37-.25l2.15.08 1.04.04c-.02-1.2.56-3.71-.98-4.14h-.01a1.464 1.464 0 00-.44-.06 1.506 1.506 0 00-.54.05h-.01c-1.34.35-1.15 2.45-1.19 3.71 0 .11-.01.22-.02.32zm37.35-.68l3.19.13c0-.12 0-.25.01-.4a13.331 13.331 0 00.04-2.29c-.11-.84-.47-1.5-1.48-1.52-1.03-.06-1.44.6-1.6 1.45a3.115 3.115 0 00-.08.44v.01c-.08.78-.03 1.62-.08 2.18zm-6.37-.26l3.19.13a23.28 23.28 0 00.06-2.58c-.09-.88-.44-1.6-1.49-1.62-1.06-.07-1.47.65-1.63 1.54-.15.86-.07 1.89-.13 2.53z" fill="#2f2e41"/><path d="M78.13 310.072l.95.04 2.24.09c-.01-.48.08-1.18.09-1.87a4.233 4.233 0 00-.02-.62c-.08-.93-.41-1.7-1.5-1.72-1.11-.06-1.5.71-1.64 1.65-.14.84-.06 1.81-.12 2.43zm12.8 6.25l3.19.12c-.01-1.3.67-4.16-1.43-4.2-2.1-.13-1.64 2.77-1.76 4.08zm-6.37-.26l3.19.13c-.01-1.31.67-4.17-1.43-4.21-2.1-.12-1.64 2.78-1.76 4.08zm-6.37-.25l3.19.12c-.01-.93.34-2.65-.23-3.57a1.32 1.32 0 00-1.2-.63 1.406 1.406 0 00-.93.23c-1.02.67-.73 2.79-.83 3.85zm-6.37-.26l3.19.13c-.01-.93.33-2.64-.22-3.57a1.323 1.323 0 00-1.21-.64 1.39 1.39 0 00-.93.23c-1.02.69-.73 2.8-.83 3.85zm-6.37-.25l3.19.12c-.01-.93.34-2.65-.23-3.57a1.32 1.32 0 00-1.2-.63 1.405 1.405 0 00-.93.23c-1.02.67-.73 2.79-.83 3.85zm-6.37-.26l3.19.13c-.01-.93.33-2.64-.22-3.57a1.312 1.312 0 00-1.21-.64 1.39 1.39 0 00-.93.23c-1.02.69-.73 2.8-.83 3.85zm-6.37-.25l3.19.12c-.01-.93.33-2.64-.23-3.57a1.308 1.308 0 00-1.2-.63 1.405 1.405 0 00-.93.23c-1.02.68-.73 2.79-.83 3.85z" fill="#2f2e41"/></svg>